<?xml version="1.0" encoding="UTF-8" standalone="no"?>
<!-- Created with Inkscape (http://www.inkscape.org/) -->

<svg
   version="1.1"
   id="svg1"
   width="1401"
   height="1905"
   viewBox="0 0 1401 1905"
   sodipodi:docname="hybrid_logo.svg"
   inkscape:version="1.4 (e7c3feb1, 2024-10-09)"
   xmlns:inkscape="http://www.inkscape.org/namespaces/inkscape"
   xmlns:sodipodi="http://sodipodi.sourceforge.net/DTD/sodipodi-0.dtd"
   xmlns="http://www.w3.org/2000/svg"
   xmlns:svg="http://www.w3.org/2000/svg">
  <defs
     id="defs1" />
  <sodipodi:namedview
     id="namedview1"
     pagecolor="#ffffff"
     bordercolor="#000000"
     borderopacity="0.25"
     inkscape:showpageshadow="2"
     inkscape:pageopacity="0.0"
     inkscape:pagecheckerboard="0"
     inkscape:deskcolor="#d1d1d1"
     inkscape:zoom="0.51721348"
     inkscape:cx="2341.393"
     inkscape:cy="1674.357"
     inkscape:window-width="1920"
     inkscape:window-height="1027"
     inkscape:window-x="0"
     inkscape:window-y="25"
     inkscape:window-maximized="0"
     inkscape:current-layer="g1" />
  <g
     inkscape:groupmode="layer"
     inkscape:label="Image"
     id="g1">
    <path
       id="rect35000-1"
       style="fill:#fc5806;fill-opacity:1"
       d="m 2213.0137,1177.8351 -3.1269,2.6308 -3.127,2.6328 -2.8672,5.6172 -2.8672,5.6191 0.4629,-4.5 0.4629,-4.5 -2.5722,4.5 -2.5723,4.5 0.6055,-3.25 0.6074,-3.25 h -0.8985 c -0.4939,0 -1.6656,1.4625 -2.6035,3.25 l -1.7051,3.25 0.3848,-2.75 c 0.5535,-3.9517 -0.6131,-3.392 -3.1269,1.5 l -2.1836,4.25 0.5976,-3.75 c 0.329,-2.0626 0.3346,-3.75 0.012,-3.75 -0.3231,0 -1.512,1.6874 -2.6406,3.75 l -2.0508,3.75 0.6075,-3.25 0.6074,-3.25 h -0.959 c -0.527,0 -1.5221,1.3654 -2.2129,3.0332 -1.8371,4.4351 -2.2575,2.9828 -0.543,-1.8769 1.5936,-4.5167 1.1887,-4.9875 -2.2343,-2.5899 -2.899,2.0305 -6.1689,8.5022 -7.795,15.4317 -0.7102,3.0267 -2.4173,7.9769 -3.7949,11.0019 l -2.5058,5.5 -0.098,-2.5 -0.1,-2.5 -2.0078,3.5 -2.0078,3.5 0.5683,-2.75 0.5684,-2.75 h -0.9512 c -0.5235,0 -1.2745,1.0125 -1.668,2.25 l -0.7148,2.25 -0.7305,-2 -0.7304,-2 -1.3243,2.8457 -1.3261,2.8438 -0.6426,-1.8282 -0.6406,-1.83 -1.7129,2.9843 -1.711,2.9844 0.4629,-2.25 0.4649,-2.25 h -0.8574 c -0.4712,0 -1.3164,0.7875 -1.877,1.75 -1.4632,2.5121 -1.3066,1.1473 0.4316,-3.7793 0.8309,-2.3549 1.3493,-4.4437 1.1524,-4.6406 -0.1969,-0.1969 -1.5648,0.5903 -3.0391,1.75 -3.0769,2.4203 -6.0546,7.8406 -7.0996,12.9199 -0.396,1.925 -1.8797,5.5147 -3.2969,7.9766 l -2.5761,4.4765 -0.459,-1.3789 -0.461,-1.3769 -1.33,2.4023 -1.3301,2.4004 -0.072,-2 -0.07,-2 -1.3301,2.4024 -1.332,2.4004 -0.5566,-1.4004 -0.5586,-1.4024 -1.0606,1.5 -1.0605,1.5 -0.047,-1.5 -0.047,-1.5 -1.3672,1.8028 -1.3672,1.8027 -0.5253,-1.3027 -0.5254,-1.3028 -1.17,1.5 -1.1699,1.5 0.5977,-1.8418 c 0.3293,-1.0136 0.8708,-2.9261 1.2031,-4.25 l 0.6035,-2.4082 h -1.0566 c -0.5816,0 -2.1889,1.4851 -3.5723,3.2989 l -2.5156,3.2968 -1.5215,6.4532 -1.5195,6.4511 -0.016,8.541 c -0.013,7.5335 2.1086,28.4583 3.5215,34.7286 l 0.5118,2.2695 -3.6543,2.1562 -3.6543,2.1563 0.498,8.5742 0.4961,8.5742 -1.377,-3.2656 -1.3769,-3.2676 -2.7402,0.6387 c -1.5072,0.3513 -3.8653,1.1502 -5.2403,1.7754 l -2.5,1.1367 -0.2929,5.5293 -0.293,5.5293 2.3437,3.4609 2.3457,3.4629 3.9493,-0.061 c 2.1718,-0.033 5.1633,-0.4132 6.6484,-0.8457 l 2.6992,-0.7852 3.1367,5.0957 c 1.7245,2.8027 3.6586,5.1564 4.2989,5.2305 0.6404,0.074 2.4638,0.1866 4.0527,0.25 l 2.8906,0.1152 4.2442,10.127 c 2.3349,5.57 6.1804,13.445 8.5449,17.5 l 4.2988,7.373 7.1016,7.25 7.0996,7.25 h 4.6113 4.6094 l 6.6504,-2.0527 6.6484,-2.0547 2.207,0.6855 c 1.2136,0.3774 3.881,2.1912 5.9297,4.0293 5.9927,5.3768 9.555,5.5758 24.5664,1.3711 l 8.2911,-2.3222 4.7089,4.5761 c 2.59,2.5175 6.284,5.5198 8.209,6.67 l 3.5,2.0898 h 4.5742 4.5743 l 7.9199,-2.3437 c 4.3594,-1.2933 11.2443,-3.1544 15.2988,-4.1368 l 7.3711,-1.7871 3.4297,-3.0097 c 4.5678,-4.0106 5.7311,-6.5641 7.8516,-17.2149 l 1.7929,-9 -0.033,-14 c -0.038,-16.5172 -1.3455,-28.4401 -5.414,-49.3574 -1.643,-8.4472 -2.8472,-15.4756 -2.6778,-15.6172 0.7478,-0.6248 40.2858,-7.8387 60.3067,-11.0039 39.022,-6.1691 76.6832,-10.3393 124,-13.7266 l 18,-1.2871 55.5,0.01 55.5,0.01 18.5,1.2773 c 58.3703,4.0325 109.678,10.4512 162.5,20.3281 12.1,2.2625 22.0885,4.1859 22.1972,4.2754 0.1088,0.089 -0.8711,5.5499 -2.1797,12.1328 -1.3087,6.5829 -3.1855,17.1438 -4.1699,23.4688 l -1.789,11.5 v 18 18 l 2.2929,8.0976 c 2.7247,9.6229 5.0749,13.7972 8.8614,15.7364 1.5368,0.7871 9.6095,3.2841 17.9394,5.5488 l 15.1445,4.1074 h 4.17 c 5.2126,0 6.9961,-0.9336 14.83,-7.7597 l 6.2911,-5.4805 9.4453,2.6211 c 5.195,1.4412 10.9138,2.6172 12.7089,2.6152 h 3.2637 l 3.5,-2.0976 c 1.925,-1.154 4.743,-3.2656 6.2617,-4.6934 l 2.7618,-2.5957 8.3789,2.1973 c 4.6089,1.2088 10.2635,2.1972 12.5644,2.1972 h 4.1817 l 5.9843,-5.709 5.9864,-5.707 4.3925,-7.0508 c 4.5934,-7.3699 11.3094,-21.2854 13.461,-27.8945 l 1.2578,-3.8633 3.4394,0.5586 3.4395,0.5586 1.6953,-1.7207 c 0.9327,-0.9461 2.5921,-3.4091 3.6875,-5.4727 l 1.9922,-3.7519 3.0078,0.7422 c 1.6546,0.4079 4.7899,0.7564 6.9668,0.7754 l 3.957,0.035 2.3008,-4 2.3008,-4 -0.2578,-4.3984 -0.2598,-4.4004 -2.5,-1.7734 c -1.375,-0.9756 -3.8702,-2.0487 -5.5449,-2.3848 l -3.0449,-0.6113 -1.1778,2.7851 -1.1796,2.7832 0.5312,-7.209 0.5293,-7.2109 -1.0918,-2.0391 -1.0918,-2.041 h -1.9043 c -1.0482,0 -2.1636,-0.4162 -2.4785,-0.9258 -0.315,-0.5095 0.172,-5.347 1.082,-10.75 l 1.6543,-9.8242 0.084,-14.5 0.086,-14.5 -1.705,-5.58 -1.7051,-5.5821 -2.4727,-2.6679 c -1.3604,-1.4678 -2.9246,-2.67 -3.4765,-2.67 h -1.0039 l 1.455,4.127 c 1.8279,5.1809 1.8251,5.7449 -0.014,3.3144 l -1.4668,-1.9414 -0.033,1.9414 -0.031,1.9414 -1.4687,-1.9414 -1.4668,-1.9414 -0.033,1.4414 -0.031,1.4414 -1.4687,-1.9414 -1.4688,-1.9414 -0.031,1.4414 -0.031,1.4414 -1.4687,-1.9414 -1.4688,-1.9414 -0.066,2 -0.068,2 -1.3536,-2.4433 -1.3535,-2.4453 -0.3594,1.8222 -0.3613,1.8223 -3.166,-6.8789 c -1.7407,-3.7825 -3.9166,-9.019 -4.8359,-11.6367 l -1.6719,-4.7579 -3.0352,-3.0351 c -1.6695,-1.6696 -3.2555,-2.8147 -3.5254,-2.5449 -0.2698,0.2699 0.2297,2.6526 1.1114,5.2949 l 1.6035,4.8027 -2.0684,-2.5 -2.0703,-2.5 0.5821,3 0.582,3 -1.5352,-2.75 c -0.8444,-1.5125 -1.9292,-2.75 -2.4101,-2.75 h -0.8731 l 0.461,2.25 0.4609,2.25 -2.0117,-3.5 -2.0137,-3.5 -0.082,2.5 -0.082,2.5 -1.664,-3 -1.6641,-3 -0.3828,1.8223 -0.3848,1.8223 -1.3808,-1.8223 -1.3809,-1.8223 -0.1133,2.5 -0.1113,2.5 -1.373,-3 c -0.7542,-1.65 -3.2255,-8.4998 -5.4922,-15.2226 l -4.1211,-12.2227 -3.0508,-2.5683 c -1.6784,-1.4123 -3.2713,-2.3499 -3.5391,-2.0821 -0.2678,0.2678 0.1909,2.4237 1.0196,4.791 2.8125,8.0349 2.8329,8.3083 0.2558,3.5547 -1.4163,-2.6126 -2.8422,-4.75 -3.1679,-4.75 -0.3256,0 -0.3155,1.6874 0.023,3.75 l 0.6152,3.75 -2.5527,-4.5 -2.5527,-4.5 0.4746,4 0.4726,4 -2.1211,-4.25 c -1.1671,-2.3375 -2.5204,-4.25 -3.0058,-4.25 h -0.8828 l 0.6093,3.25 0.6075,3.25 -2.0528,-3.75 c -1.1286,-2.0625 -2.3155,-3.75 -2.6386,-3.75 -0.3231,0 -0.3226,1.6875 0,3.75 l 0.5878,3.75 -1.9355,-4.25 c -1.0649,-2.3375 -2.3435,-4.25 -2.8398,-4.25 h -0.9024 l 0.4453,2.75 0.4434,2.75 -3.0449,-5.1465 c -1.6743,-2.8309 -4.2464,-6.0933 -5.7168,-7.2499 l -2.6739,-2.1035 h -4.0488 -4.0488 l -4.3965,2.1289 -4.3945,2.1269 -6.5039,7.623 c -12.9107,15.1304 -23.2466,35.2506 -33.9668,66.1211 l -4.3418,12.5 -1.4219,0.3067 c -0.7825,0.1681 -9.4742,-1.2811 -19.3145,-3.2207 -66.9739,-13.2012 -124.225,-19.5151 -205.7929,-22.6934 l -30,-1.168 -33.5,0.5977 -33.5,0.5977 -21.5,1.5429 c -62.9222,4.5175 -115.8923,11.3102 -168.8711,21.6563 -8.4541,1.6509 -15.914,2.7938 -16.5781,2.539 l -1.2071,-0.4629 -4.8242,-13.8476 c -6.6599,-19.1184 -14.1664,-36.2463 -20.8965,-47.6817 l -5.6836,-9.6562 -6.2187,-6.6719 c -3.421,-3.6689 -8.2208,-7.9454 -10.666,-9.5039 l -4.4434,-2.8378 h -4.2285 z m 650.7227,5.8671 2.0547,1.0996 c 3.0357,1.6246 5.7177,7.6314 7.6425,17.1192 l 1.7071,8.414 -0.6192,15 -0.6172,15 -1.955,13 c -6.3459,42.1974 -21.7083,89.1142 -38.4121,117.3145 l -6.1094,10.3164 -5.3106,5.8672 c -5.8407,6.4543 -10.8526,10.0019 -14.1308,10.0019 h -2.1328 l -1.877,-1.8769 -1.8789,-1.8789 -2.291,-6.8711 -2.291,-6.8731 -0.6133,-10 -0.6152,-10 0.7656,-12.4609 c 0.7988,-12.9804 2.3357,-23.4554 5.9805,-40.7891 l 2.1542,-10.25 h 1.4004 1.4004 l -0.5176,1.75 c -0.7984,2.6982 -5.3125,26.7933 -6.6972,35.75 l -1.2363,8 -0.092,15 -0.092,15 1.3632,5.3086 1.3633,5.3086 2.4766,2.9414 2.4746,2.9414 h 1.9609 c 1.0784,0 3.239,-0.662 4.8028,-1.4707 l 2.8437,-1.4687 4.6797,-6.2246 c 2.5736,-3.4237 5.7483,-8.0512 7.0547,-10.2813 2.6633,-4.5466 5.7385,-11.5547 5.0703,-11.5547 -0.2401,0 -2.5416,3.1649 -5.1133,7.0332 -2.5716,3.8684 -7.2288,9.7184 -10.3515,13 l -5.6778,5.9668 h -1.6894 -1.6875 l -1.1758,-2.1972 -1.1758,-2.1973 -0.4902,-11.0899 -0.4883,-11.0917 1.1836,-10.461 c 1.2483,-11.0287 6.1255,-36.6321 8.2949,-43.5469 l 1.2813,-4.0859 3.3203,0.8828 3.3222,0.8809 -0.6875,8.8008 -0.6894,8.8007 1.2031,2.2461 1.2012,2.2461 2.5137,-2.3437 c 6.2902,-5.8661 13.4569,-27.186 16.2949,-48.4766 l 1.084,-8.1328 -1.1914,-2.6172 c -0.6557,-1.4391 -1.4917,-2.6172 -1.8575,-2.6172 -1.4519,0 -4.9886,4.8067 -7.7265,10.5 l -2.8867,6 -2.9493,-0.3183 c -1.6228,-0.1748 -3.3041,-0.6636 -3.7363,-1.086 l -0.7871,-0.7676 5.0371,-15.2226 c 5.3961,-16.3093 10.2475,-28.5951 15.1895,-38.4609 4.3012,-8.5864 11.6369,-19.4621 13.9668,-20.709 l 1.955,-1.0469 1.8536,0.5898 1.8554,0.5879 1.0957,2.7168 c 0.6025,1.4942 1.7863,6.0662 2.6328,10.1602 0.8466,4.0941 1.8144,7.6941 2.1485,8 0.334,0.306 0.3662,-3.0434 0.074,-7.4434 l -0.5313,-8 -1.7226,-4.2793 -1.7227,-4.2793 -1.8144,-0.9707 c -0.9977,-0.534 -3.0218,-0.9707 -4.4981,-0.9707 h -2.6836 l -6.1308,6.3047 -6.1328,6.3047 -4.9805,8.4453 c -5.8827,9.9757 -13.602,27.644 -19.5293,44.6953 l -4.2598,12.25 h -1.2968 -1.2969 l 3.8105,-11.25 c 10.653,-31.4514 23.5899,-55.9471 36.4492,-69.0137 l 5.459,-5.5449 3.0137,-0.6621 z m -648.7031,0.1328 h 2.2597 2.2617 l 3.9004,2.8418 c 13.454,9.8055 25.5649,30.4886 38.2949,65.3985 6.3525,17.4206 6.8243,19.166 5.0137,18.5625 l -1.0918,-0.3633 -5.8515,-16.3692 c -3.219,-9.0031 -8.5378,-21.8324 -11.8184,-28.5097 l -5.9648,-12.1407 -5.9512,-8.0273 c -3.2736,-4.4152 -7.2009,-9.0108 -8.7266,-10.2109 l -2.7734,-2.1817 h -2.4317 c -3.5045,0 -6.0601,1.6377 -7.7968,4.9961 l -1.5196,2.9375 -0.4589,9.2832 -0.461,9.2832 1.5547,-6.5 c 0.8544,-3.575 1.9803,-8.1792 2.502,-10.2324 l 0.9472,-3.7324 2.0039,-1.0723 2.0039,-1.0742 1.8965,0.6016 1.8945,0.6035 5.1661,8.0508 c 2.8408,4.4285 6.537,10.9831 8.2129,14.5644 4.0962,8.7535 19.6641,51.5965 19.0918,52.541 -0.2499,0.4125 -2.0023,0.75 -3.8946,0.75 h -3.4414 l -3.8125,-7.748 -3.8125,-7.7481 -1.8183,-0.3496 -1.8184,-0.3515 -0.8535,1.3496 c -3.3025,5.2113 3.1581,35.8762 11.0644,52.5175 l 3.8809,8.17 2.043,1.0918 2.0429,1.0937 1.0352,-1.9336 1.0332,-1.9336 -0.541,-6.3281 c -0.2978,-3.481 -0.7228,-7.5185 -0.9453,-8.9707 l -0.4043,-2.6387 3.8457,-0.9765 3.8437,-0.9766 3.1113,14.6172 c 1.7109,8.039 3.8664,18.8902 4.7891,24.1152 l 1.6777,9.5 0.016,15.5 0.018,15.5 -1.1718,2.75 -1.1739,2.75 h -1.4472 c -2.8216,0 -12.8132,-10.5614 -20.834,-22.0234 l -1.7324,-2.4766 1.041,2.9727 c 0.5732,1.6345 2.4776,5.6845 4.2305,9 l 3.1855,6.0273 5.5527,5.75 5.5528,5.75 h 2.2675 c 1.2466,0 3.1794,-0.4889 4.295,-1.0859 l 2.0273,-1.084 2.1172,-4.666 2.1172,-4.6641 0.3984,-15.3613 0.3985,-15.3613 -1.1914,-9.6387 c -0.6553,-5.3011 -2.5045,-16.2992 -4.1094,-24.4395 -3.4094,-17.2924 -3.2453,-15.6992 -1.625,-15.6992 h 1.2949 l 2.75,14.25 c 1.5128,7.8375 3.3957,19.2 4.1856,25.25 l 1.4375,11 0.02,11.6192 0.019,11.6191 -1.5312,8.8809 c -1.9528,11.3281 -2.1105,11.8018 -5.127,15.3867 l -2.5195,2.9941 h -2.2363 -2.2344 l -4.6875,-3.332 c -8.867,-6.3042 -16.3648,-16.9575 -26.1621,-37.168 -13.9328,-28.7412 -22.8473,-58.1533 -30.1563,-99.5 l -2.7402,-15.5 -0.053,-19.5 -0.053,-19.5 1.9141,-6.3691 1.916,-6.3711 2.4238,-2.8789 z m 696.7832,51.5 -0.4219,13.5 -0.4199,13.5 -2.0625,12 c -2.9354,17.074 -7.4487,34.5655 -13.2559,51.377 -4.3796,12.6787 -12.4693,31.7707 -12.7168,30.0117 -0.047,-0.3368 1.2637,-3.8833 2.9121,-7.8809 11.1476,-27.0329 19.7405,-61.5722 24.0098,-96.5078 z m -26.2247,2 -0.3359,14 c -0.3623,15.04 -0.1436,15.0803 2.7148,0.5 l 1.8633,-9.5 -0.4472,12.3731 c -0.2455,6.8054 -0.2192,12.1472 0.059,11.8691 0.2781,-0.2782 1.5775,-5.8457 2.8867,-12.373 l 2.3789,-11.8692 -0.4043,13 -0.4043,13 2.9336,-13 2.9355,-13 -0.4394,6 c -0.2412,3.3 -0.7272,9.6 -1.0801,14 -0.3529,4.4 -0.3593,7.735 -0.014,7.4102 0.3459,-0.3249 1.7319,-5.7249 3.0782,-12 l 2.4472,-11.4102 -0.5449,8 c -1.9981,29.3756 -9.9139,59.902 -22.9043,88.3203 -2.066,4.5197 -3.9149,8.0597 -4.1074,7.8672 -0.1926,-0.1925 0.7813,-3.6709 2.1621,-7.7304 1.3807,-4.0595 2.3653,-7.8122 2.1894,-8.3399 -0.1759,-0.5277 -2.2803,3.1682 -4.6777,8.2129 -2.3974,5.0447 -4.5068,9.0245 -4.6875,8.8438 -0.1807,-0.1807 1.0229,-4.331 2.6758,-9.2208 1.6528,-4.8897 2.8552,-9.3407 2.6719,-9.8906 -0.1833,-0.5499 -2.6686,3.7112 -5.5235,9.4688 -2.855,5.7576 -5.026,9.7937 -4.8242,8.9687 0.2018,-0.825 1.6047,-5.2401 3.1172,-9.8125 1.5124,-4.5724 2.5718,-8.4927 2.3535,-8.7109 -0.2182,-0.2182 -2.3993,3.3744 -4.8476,7.9844 -2.4482,4.6101 -4.5646,8.2713 -4.7012,8.1347 -0.1367,-0.1366 1.1156,-3.9874 2.7832,-8.5566 1.6675,-4.5692 2.8861,-8.7461 2.707,-9.2832 -0.179,-0.5371 -2.5561,3.3119 -5.2832,8.5547 -2.7271,5.2428 -5.084,9.4082 -5.2363,9.2558 -0.1523,-0.1523 1.3088,-4.4312 3.2461,-9.5078 1.9373,-5.0765 3.5215,-9.4428 3.5215,-9.7031 0,-1.9047 -2.8195,2.2661 -7.0801,10.4726 -5.4992,10.5924 -5.4914,10.4289 0.1777,-4.6953 8.1519,-21.7472 16.2454,-52.5866 20.3223,-77.4257 1.3729,-8.3642 2.7114,-16.3321 2.9746,-17.7071 0.2632,-1.375 0.3514,3.2437 0.1953,10.2637 -0.156,7.0201 -0.014,12.5002 0.3145,12.1777 0.3284,-0.3224 1.5492,-6.0661 2.7148,-12.7636 z m -695.4765,1 2.3281,12.875 c 1.2801,7.0813 2.6106,13.1563 2.957,13.5 0.3465,0.3436 0.3835,-5.225 0.082,-12.375 l -0.5489,-13 2.211,12 2.209,12 0.5,-12 0.5,-12 0.7929,6.5 c 0.4359,3.575 2.559,15.2775 4.7188,26.0039 l 3.9277,19.502 5.0059,16.998 c 2.7532,9.3486 6.596,21.2297 8.539,26.4043 1.943,5.1746 3.3622,9.5792 3.1543,9.7871 -0.2079,0.2079 -2.2783,-3.2723 -4.5996,-7.7343 -2.3214,-4.462 -4.4481,-7.886 -4.7265,-7.6075 -0.2785,0.2785 1.1153,4.8874 3.0957,10.2403 1.9804,5.3529 3.4606,9.8714 3.291,10.041 -0.1695,0.1695 -2.5146,-4.1801 -5.2129,-9.6641 -2.6982,-5.484 -5.2531,-9.9707 -5.6777,-9.9707 -0.4245,0 0.7938,4.3286 2.7089,9.6192 1.9151,5.2906 3.4598,9.9031 3.4317,10.25 -0.028,0.3469 -2.3064,-3.8027 -5.0625,-9.2227 -2.7561,-5.42 -5.2055,-9.6598 -5.4434,-9.4219 -0.2379,0.2379 0.9154,4.4184 2.5625,9.291 1.647,4.8728 2.9715,9.1126 2.9434,9.4219 -0.028,0.3093 -2.3064,-3.871 -5.0625,-9.291 -2.7561,-5.42 -5.2055,-9.6598 -5.4434,-9.4219 -0.2379,0.2379 0.9154,4.4184 2.5625,9.291 1.647,4.8728 2.9713,9.1126 2.9434,9.4219 -0.028,0.3093 -2.2551,-3.7125 -4.9492,-8.9375 -2.6942,-5.225 -4.9214,-9.0247 -4.9493,-8.4453 -0.028,0.5795 1.5206,5.7199 3.4414,11.4238 1.9208,5.7039 3.3014,10.562 3.0665,10.7969 -0.2348,0.2348 -1.8468,-2.3848 -3.5821,-5.8223 -9.2382,-18.3008 -19.067,-52.5951 -23.4648,-81.875 -0.8314,-5.5351 -1.4695,-11.9792 -1.4199,-14.3203 l 0.09,-4.2578 1.9336,8.5 c 1.0637,4.675 2.1512,8.95 2.416,9.5 0.2649,0.55 0.2861,-4.4 0.047,-11 l -0.4356,-12 2.4336,11.5 c 1.3388,6.325 2.6407,11.95 2.8907,12.5 0.2501,0.55 0.256,-4.625 0.014,-11.5 l -0.4414,-12.5 1.9668,10 c 2.8438,14.4666 2.9583,14.4219 2.5899,-1 z m -21.2305,3 1.9063,13.7832 c 3.9092,28.2617 10.7808,57.6559 18.5839,79.4883 1.8885,5.2838 3.2877,9.7555 3.1075,9.9356 -0.1802,0.1802 -2.3783,-4.9679 -4.8848,-11.4395 -10.7353,-27.7179 -16.8795,-55.17 -18.1875,-81.2676 z m 673.7949,6.2403 -2.6621,1.9765 c -1.4647,1.0871 -3.9418,4.0313 -5.5039,6.543 l -2.8398,4.5664 0.3398,1.6152 0.3399,1.6133 4.4004,-5.5273 4.3984,-5.5274 h 1.7441 1.7442 l 0.6054,1.5821 c 0.3339,0.87 0.6073,5.2575 0.6055,9.75 v 8.1679 l -1.5527,8.8731 c -2.7829,15.9095 -9.0572,32.8438 -15.3301,41.3769 l -3.1231,4.25 h -1.955 -1.9532 l -1.2089,-4.25 c -0.6648,-2.3375 -1.5818,-4.6767 -2.0391,-5.1992 l -0.832,-0.9512 v 4.25 4.25 l 1.5254,2.9512 1.5254,2.9492 h 3.375 3.373 l 4.9551,-5.4238 4.957,-5.4238 4.1504,-8.3789 4.1504,-8.3789 2.6211,-9.9473 2.6211,-9.9473 0.4843,-12.5996 0.4864,-12.5976 -2.041,-4.6133 -2.0411,-4.6153 -2.6601,-0.666 z m -604.2382,0.1464 -2.5391,0.6368 c -3.8914,0.9766 -4.9327,2.2743 -6.6914,8.3242 l -1.625,5.5859 1.2051,11.2656 c 2.6691,24.9819 10.3074,44.7532 20.8789,54.0371 l 3.6836,3.2344 3.2148,0.016 3.2149,0.014 0.9199,-1.75 c 0.506,-0.9625 1.239,-4.1125 1.6289,-7 l 0.709,-5.25 h -0.9043 c -0.4976,0 -1.4725,2.2155 -2.1661,4.9219 l -1.2617,4.9199 -1.3066,0.502 -1.3067,0.5019 -3.0703,-3.1738 -3.0722,-3.1719 -3.9825,-8.5058 c -8.6426,-18.4541 -14.4929,-48.6108 -11.1406,-57.4278 l 0.9746,-2.5664 h 1.4629 1.461 l 4.8125,5.4883 c 2.647,3.018 5.1764,5.493 5.6211,5.5 1.4354,0.022 -5.5701,-12.0485 -8.1875,-14.1074 z m 330.9121,0.8672 24,1.1582 c 25.4449,1.2291 61.4603,4.0832 83,6.5782 20.2659,2.3474 51.5788,6.7649 51.1308,7.2128 -0.2223,0.2224 -9.5679,-0.7253 -20.7676,-2.1054 -44.0749,-5.4314 -80.3224,-8.1094 -130.9472,-9.6758 l -35.584,-1.1016 -35.416,1.1016 c -50.2013,1.5626 -96.7928,5.0628 -134.916,10.1348 -7.975,1.061 -15.4,1.883 -16.5,1.8261 -1.1,-0.057 6.55,-1.3819 17,-2.9433 23.2046,-3.467 59.699,-7.3937 88.5,-9.5235 l 21.5,-1.5898 44.5,-0.5371 z m -432.2246,3.7461 0.83,9.5 c 2.7817,31.8296 11.5102,66.7343 23.7422,94.9453 2.2524,5.1949 3.9236,9.6175 3.7129,9.8282 -0.2108,0.2107 -1.5328,-1.5779 -2.9375,-3.9746 -8.7326,-14.901 -19.5219,-50.884 -23.6269,-78.7989 l -1.9844,-13.5 0.1308,-9 z m 805.8828,5 0.5039,1.25 c 0.2774,0.6875 0.2774,1.8125 0,2.5 l -0.5039,1.25 v -2.5 z m -26.3477,3 0.096,5.25 0.096,5.25 h 0.9238 0.9239 l 0.957,-5.25 0.957,-5.25 0.1192,5.75 0.1191,5.75 h 0.8594 c 0.4726,0 1.3121,-2.3625 1.8672,-5.25 l 1.0097,-5.25 0.1622,6.5 0.1621,6.5 0.8418,-1.5 c 0.4627,-0.825 1.2209,-3.3 1.6855,-5.5 l 0.8438,-4 0.5683,6 0.5664,6 1.4668,-6.5 1.4668,-6.5 0.5,7 0.5,7 1.6328,-6.5 1.6328,-6.5 0.1114,5 c 0.2631,11.8499 -5.7463,40.2007 -12.9512,61.0957 -3.7927,10.9994 -10.3132,25.4043 -11.498,25.4043 -0.3005,0 -0.3431,-0.3375 -0.094,-0.75 0.2496,-0.4125 1.1651,-3.1593 2.0352,-6.1035 l 1.582,-5.3516 -1.3223,1.0957 c -0.7272,0.6036 -2.1368,2.9046 -3.1328,5.1133 -2.3491,5.2095 -2.794,4.6345 -1.0078,-1.3008 1.8093,-6.0117 0.5662,-6.0557 -2.3359,-0.082 -2.71,5.5781 -3.7421,5.2975 -1.709,-0.4648 1.9281,-5.4649 0.6411,-5.3024 -2.4219,0.3047 -1.3399,2.4528 -2.5671,4.3294 -2.7266,4.1699 -0.1596,-0.1595 0.4331,-2.4175 1.3184,-5.0156 2.0734,-6.0851 1.1409,-7.0177 -1.6152,-1.6153 -2.6507,5.1958 -3.5193,4.7245 -1.5547,-0.8437 1.949,-5.5242 0.7158,-5.2588 -2.7735,0.5976 -1.5552,2.6102 -2.5334,3.8461 -2.1738,2.7461 0.3597,-1.1 2.6668,-8.0045 5.125,-15.3437 5.4754,-16.3473 11.5136,-40.1427 14.7578,-58.1563 z m -760.5723,2 0.9747,5.5 c 0.5362,3.025 1.3823,5.9287 1.8808,6.4512 l 0.9063,0.9492 0.1191,-6.4492 0.1191,-6.4512 0.9571,5.25 0.957,5.25 h 0.9238 0.9239 l 0.082,-3.75 0.08,-3.75 2.8008,13.5 c 4.4853,21.6314 11.59,47.6031 18.4648,67.5 0.3801,1.1 -0.2471,0.3125 -1.3926,-1.75 -1.1454,-2.0625 -2.5012,-3.75 -3.0137,-3.75 h -0.9316 l 1.4649,4.1563 c 1.9733,5.5932 1.3763,5.7095 -1.5762,0.3047 -3.3295,-6.0949 -4.2644,-5.6049 -1.9785,1.039 1.0407,3.025 1.6991,5.5 1.4629,5.5 -0.2361,0 -1.5925,-2.2949 -3.0137,-5.0996 -3.1297,-6.1762 -4.2771,-5.7787 -2.0645,0.7149 0.8852,2.5981 1.4798,4.8541 1.3203,5.0136 -0.1595,0.1595 -1.3866,-1.7151 -2.7265,-4.1679 -1.3399,-2.4528 -2.7713,-4.461 -3.1817,-4.461 h -0.7461 l 0.8282,2.25 c 0.4558,1.2375 1.1182,3.6 1.4707,5.25 l 0.6406,3 -3.0625,-5.8496 c -1.6836,-3.2176 -3.2568,-5.6534 -3.4961,-5.4141 -0.2394,0.2393 0.2255,2.6252 1.0313,5.3028 0.8058,2.6775 1.3236,5.0084 1.1523,5.1797 -0.1713,0.1713 -2.2247,-3.8096 -4.5645,-8.8457 -2.3398,-5.036 -6.2034,-15.0747 -8.5839,-22.3086 l -4.3282,-13.1524 -2.0605,-10.955 c -1.978,-10.5111 -4.3383,-31.5289 -3.6211,-32.2461 0.1895,-0.1895 0.6375,1.3813 0.9941,3.4921 0.3567,2.1108 1.0694,4.5046 1.584,5.3184 l 0.9356,1.4785 0.1152,-6.5 0.1152,-6.5 1.4043,6.4219 c 0.7723,3.5317 1.6279,6.6435 1.9004,6.916 0.2725,0.2725 0.5413,-2.6158 0.5977,-6.4199 l 0.1015,-6.918 1.2657,5.7852 c 1.7749,8.1142 2.5107,8.1515 2.6484,0.1328 z m 191.0313,1.8067 c 0.973,-0.2535 2.323,-0.2368 3,0.037 0.6771,0.2739 -0.1195,0.4812 -1.7695,0.4609 l -3,-0.037 z m 383.4805,0.031 c 0.6875,-0.2774 1.8125,-0.2774 2.5,0 l 1.25,0.5039 h -2.5 -2.5 z m 7.0625,0.9785 c 0.7219,-0.2889 1.5856,-0.2523 1.9179,0.08 0.3323,0.3323 -0.2584,0.5688 -1.3125,0.5254 l -1.9179,-0.08 z m -397.0625,0.022 c 0.6875,-0.2774 1.8125,-0.2774 2.5,0 l 1.25,0.5039 h -2.5 -2.5 z m 602.0449,0.1621 0.084,5.5 c 0.2768,17.9667 -8.9986,55.4143 -18.8242,76 -1.7064,3.575 -2.8179,5.6 -2.4708,4.5 0.3472,-1.1 2.4055,-6.9204 4.5743,-12.9355 6.5269,-18.1025 12.527,-42.9255 15.3105,-63.3399 z m -607.9824,0.8164 c 0.7219,-0.2889 1.5856,-0.2523 1.9179,0.08 0.3323,0.3323 -0.2584,0.5688 -1.3125,0.5254 l -1.9179,-0.08 z m -209.6075,8.1836 1.0039,3.5 c 0.5521,1.925 1.2663,4.175 1.5879,5 l 0.584,1.5 0.6602,-4.5 0.6582,-4.5 0.1504,2.6914 c 0.083,1.48 0.6004,2.9687 1.1504,3.3086 l 1,0.6192 0.094,-1.8106 c 0.052,-0.9949 1.1618,4.0058 2.4668,11.1113 3.1138,16.9557 6.5635,30.5674 11.3867,44.9239 l 3.9317,11.6992 -1.086,-0.6699 -1.084,-0.6719 0.6622,2.9004 0.6601,2.8984 -1.375,-1.75 c -1.9907,-2.5324 -2.7829,-2.152 -2.082,1 l 0.6113,2.75 -2.0781,-3.25 c -2.0576,-3.2183 -3.7575,-4.4105 -2.8516,-2 0.2584,0.6875 0.7913,2.375 1.1836,3.75 l 0.7129,2.5 -2.1699,-3 -2.1719,-3 0.5703,3.25 c 0.3132,1.7875 0.4532,3.25 0.3106,3.25 -0.1427,0 -1.1136,-1.4438 -2.1563,-3.209 l -1.8945,-3.2089 -0.457,1.371 -0.459,1.3731 -3.9219,-9.4121 c -2.1576,-5.1772 -5.2066,-13.7273 -6.7754,-19 -2.8768,-9.6687 -7.0871,-31.932 -6.957,-36.7891 l 0.07,-2.625 0.8594,2 0.8593,2 0.1485,-5 0.1465,-5 1.3183,4 1.3184,4 0.2031,-5 0.2031,-5 1.3028,4.5 1.3047,4.5 0.1992,-5.5 z m 826.586,1 0.1054,4.418 c 0.1168,4.9199 0.9351,4.8738 2.1172,-0.1172 l 0.7813,-3.3008 0.1035,4.4512 0.1016,4.4492 0.916,-0.9492 c 0.5035,-0.5225 1.1167,-2.0762 1.3633,-3.4512 l 0.4492,-2.5 0.1367,3.75 0.1348,3.75 h 0.9316 c 0.5118,0 1.1249,-1.0125 1.3633,-2.25 l 0.4336,-2.25 0.1367,2.75 0.1348,2.75 h 1 c 0.55,0 1,-0.7493 1,-1.666 0,-0.9166 0.2572,-1.4107 0.5703,-1.0977 1.0235,1.0235 -2.5136,23.0055 -5.5762,34.6524 -2.7856,10.5939 -9.5225,28.999 -12.0449,32.9082 l -1.0996,1.7031 0.5449,-1.75 0.543,-1.75 h -0.7871 c -0.4329,0 -1.5367,1.4625 -2.4532,3.25 l -1.666,3.25 0.5313,-4 0.5312,-4 -1.5781,2.75 c -2.0688,3.6044 -2.5838,3.4717 -1.9356,-0.5 l 0.5313,-3.25 -1.5879,2.75 c -1.8602,3.2226 -2.9772,3.5981 -2.2324,0.75 l 0.5215,-2 h -0.8731 c -0.4809,0 -1.5931,1.2375 -2.4707,2.75 l -1.5957,2.75 0.5684,-1.8418 c 0.3124,-1.0136 0.8561,-2.9944 1.209,-4.4004 l 0.6425,-2.5566 -0.959,0.5937 c -0.5269,0.3256 0.7852,-4.4455 2.9161,-10.6015 4.7657,-13.7678 9.0968,-31.1861 11.4355,-45.9981 l 1.7676,-11.1953 0.4043,2.5 0.4043,2.5 1.2637,-4 z"
       sodipodi:nodetypes="cccccssccsccsccccsssssccccccccsccccccccccccsssssscccccccccccccccccccccccccscccccccccccccsscccccccccsscccccccccccsscccccccccccccssscccccscsccccssccsccccccccssccccscccccccccccccsscccccccssscccccssccccccccccccccccccccccsccssccccccssccccccccccccccccsccsssscccccccsccccscccsccccscccccccccscccccssccccccccccsscccccccsccccccccccccsccccccccscccsssscccccccsccccccccssccsccccccsccccsssscccsscccsccccsccccccccscscsccscsccccccccccccssscccccccccccccsccccscccccscccccccsccccccsssccccccssccccsscccccccccccssssccccccscccccccsscccssssssssssssssssssssssssssscccscccccccccssssssssssssssssssssssssscccscccsccccccssssccccscccccccccccccccssccccccccccccccccccccccccccccsscscccccccccccccccccssscccssssccccsssccccccssccccccccccccsscccsccccccccccsssssccsssssssssssscccscccccccccccsssccssssssssccsccsssssccssccccssccsscssscscccccccsccsccccccscsssscssccsccccccccccscccccccscsscccccscccccssccccccccccccccccccccccccsscccssssccccsscccsccsccsscccccsscccccccsscc"
       inkscape:export-filename="../Sites/hybrid/storage/app/public/img/barbell.png"
       inkscape:export-xdpi="130"
       inkscape:export-ydpi="130" />
  </g>
</svg>
